<?xml version="1.0" encoding="utf-8"?>
<svg id="master-artboard" viewBox="0 0 966.1976318359375 1359.7431640625" version="1.1" xmlns="http://www.w3.org/2000/svg" x="0px" y="0px" style="enable-background:new 0 0 1400 980;" width="966.1976318359375px" height="1359.7431640625px"><defs><style id="ee-google-fonts">@import url(https://fonts.googleapis.com/css?family=Rubik:300,300italic,400,400italic,500,500italic,700,700italic,900,900italic);</style><style id="style-1">@import url(https://fonts.googleapis.com/css?family=Fjalla+One:400|Roboto:100,100italic,300,300italic,400,400italic,500,500italic,700,700italic,900,900italic);</style></defs><rect id="ee-background" x="0" y="0" width="966.1976318359375" height="1359.7431640625" style="fill: rgb(255, 52, 25); fill-opacity: 1; pointer-events: none;" transform="matrix(1, 0, 0, 1, -9, 0)"/>








































<g transform="matrix(-9.419474947643193e-8, -0.9850355334457787, 0.9850355334457787, -9.419474947643193e-8, -14.414121829066112, 1367.967166860613)"><rect id="rect-1" x="0" y="0" width="1400" height="1000" style="fill: rgb(252, 250, 255); fill-opacity: 1; pointer-events: none;"/><g transform="matrix(0.9999999999999999, 0, 0, 0.9999999999999999, 1.8189894035458565e-12, 4.547473508864641e-13)">
		<path class="st13" d="M448.4,599.9" style="fill: rgb(223, 243, 251);"/>
	</g><g transform="matrix(6.8095121383667, 0, 0, 6.8095121383667, -3154.941370396975, -363.74603271484375)"><g id="g-7" transform="matrix(1, 0, 0, 1, 0, 0)">
	<g id="g-8">
		<path class="st0" d="M652,46c27.6,0,50,22.4,50,50s-22.4,50-50,50s-50-22.4-50-50S624.4,46,652,46z" style="fill: rgb(141, 158, 255); fill-opacity: 0.4;"/>
	</g>
</g></g><g transform="matrix(5.010772705078126, 0, 0, 5.010772705078126, -3118.5419319132766, 360.83052024495646)"><g id="g-15" transform="matrix(1, 0, 0, 1, 0, 0)">
	<g id="g-16">
		<path class="st0" d="M652,46c27.6,0,50,22.4,50,50s-22.4,50-50,50s-50-22.4-50-50S624.4,46,652,46z" style="fill: rgb(124, 48, 255); fill-opacity: 0.39;"/>
	</g>
</g></g><g transform="matrix(3.2120294570922856, 0, 0, 3.2120294570922856, -1932.8361953730894, -146.13441314652664)"><g id="g-17" transform="matrix(1, 0, 0, 1, 0, 0)">
	<g id="g-18">
		<path class="st0" d="M652,46c27.6,0,50,22.4,50,50s-22.4,50-50,50s-50-22.4-50-50S624.4,46,652,46z" style="fill: rgb(213, 255, 249); fill-opacity: 1;"/>
	</g>
</g></g><g transform="matrix(4.235265731811523, 0, 0, 4.235265731811523, -1500.276593508656, 323.2618400593801)"><g id="g-19" transform="matrix(1, 0, 0, 1, 0, 0)">
	<g id="g-20">
		<path class="st0" d="M652,46c27.6,0,50,22.4,50,50s-22.4,50-50,50s-50-22.4-50-50S624.4,46,652,46z" style="fill: rgb(161, 123, 234); fill-opacity: 0.5;"/>
	</g>
</g></g><g transform="matrix(0.8639700412750245, 0, 0, 0.8639700412750245, -451.98614041379557, 296.3130927759676)"><g id="g-33" transform="matrix(1, 0, 0, 1, 0, 0)">
	<g id="g-34">
		<path class="st0" d="M652,46c27.6,0,50,22.4,50,50s-22.4,50-50,50s-50-22.4-50-50S624.4,46,652,46z" style="fill: rgb(213, 255, 249); fill-opacity: 1;"/>
	</g>
</g></g><g transform="matrix(1.0255365371704102, 0, 0, 1.0255365371704102, -615.4903739735182, 433.749698257335)"><g id="g-25" transform="matrix(1, 0, 0, 1, 0, 0)">
	<g id="g-26">
		<path class="st0" d="M652,46c27.6,0,50,22.4,50,50s-22.4,50-50,50s-50-22.4-50-50S624.4,46,652,46z" style="fill: rgb(124, 48, 255); fill-opacity: 0.31;"/>
	</g>
</g></g><g transform="matrix(0.7347208261489867, 0, 0, 0.7347208261489867, 612.4368843040702, 879.5792381262088)"><g id="g-39" transform="matrix(1, 0, 0, 1, 0, 0)">
	<g id="g-40">
		<path class="st0" d="M652,46c27.6,0,50,22.4,50,50s-22.4,50-50,50s-50-22.4-50-50S624.4,46,652,46z" style="fill: rgb(112, 44, 249); fill-opacity: 0.35;"/>
	</g>
</g></g><g transform="matrix(1.467141270637512, 0, 0, 1.467141270637512, -36.358496478230336, -106.26032218810454)"><g id="g-21" transform="matrix(1, 0, 0, 1, 0, 0)">
	<g id="g-22">
		<path class="st0" d="M652,46c27.6,0,50,22.4,50,50s-22.4,50-50,50s-50-22.4-50-50S624.4,46,652,46z" style="fill: rgb(141, 158, 255); fill-opacity: 0.21;"/>
	</g>
</g></g><g transform="matrix(3.3197422467637807, 0, 0, 3.3197422467637807, -1565.7659051683731, 29.862081410828985)"><g id="g-23" transform="matrix(1, 0, 0, 1, 0, 0)">
	<g id="g-24">
		<path class="st0" d="M652,46c27.6,0,50,22.4,50,50s-22.4,50-50,50s-50-22.4-50-50S624.4,46,652,46z" style="fill: rgb(157, 183, 255); fill-opacity: 0.11;"/>
	</g>
</g></g><g transform="matrix(1.1440188884735105, 0, 0, 1.1440188884735105, -83.10739212727464, 470.8444988265228)"><g id="g-29" transform="matrix(1, 0, 0, 1, 0, 0)">
	<g id="g-30">
		<path class="st0" d="M652,46c27.6,0,50,22.4,50,50s-22.4,50-50,50s-50-22.4-50-50S624.4,46,652,46z" style="fill: rgb(157, 183, 255); fill-opacity: 0.11;"/>
	</g>
</g></g><g transform="matrix(0.7239529490470885, 0, 0, 0.7239529490470885, 299.0232093835566, 579.5660243953471)"><g id="g-35" transform="matrix(1, 0, 0, 1, 0, 0)">
	<g id="g-36">
		<path class="st0" d="M652,46c27.6,0,50,22.4,50,50s-22.4,50-50,50s-50-22.4-50-50S624.4,46,652,46z" style="fill: rgb(129, 83, 222); fill-opacity: 0.11;"/>
	</g>
</g></g><g transform="matrix(2.4149855339349235, 0, 0, 2.4149855339349235, -846.6137399494843, 612.1804069741803)"><g id="g-37" transform="matrix(1, 0, 0, 1, 0, 0)">
	<g id="g-38">
		<path class="st0" d="M652,46c27.6,0,50,22.4,50,50s-22.4,50-50,50s-50-22.4-50-50S624.4,46,652,46z" style="fill: rgb(129, 83, 222); fill-opacity: 0.11;"/>
	</g>
</g></g><g transform="matrix(1.2732646465301511, 0, 0, 1.2732646465301511, -297.7037525171427, -82.2628009826249)"><g id="g-41" transform="matrix(1, 0, 0, 1, 0, 0)">
	<g id="g-42">
		<path class="st0" d="M652,46c27.6,0,50,22.4,50,50s-22.4,50-50,50s-50-22.4-50-50S624.4,46,652,46z" style="fill: rgb(213, 255, 249); fill-opacity: 0.53;"/>
	</g>
</g></g></g></svg>